<?xml version="1.0" encoding="UTF-8"?>
<svg version="1.1" xmlns="http://www.w3.org/2000/svg" width="369" height="306">
<path d="M0 0 C1.19894897 -0.01268417 2.39789795 -0.02536835 3.63317871 -0.03843689 C5.56755798 -0.03403343 5.56755798 -0.03403343 7.54101562 -0.02954102 C8.89278423 -0.03410947 10.24455051 -0.039417 11.59631348 -0.04542542 C14.43084125 -0.0543512 17.26508734 -0.05194501 20.09960938 -0.04199219 C23.69585768 -0.03058354 27.29111212 -0.05058948 30.88722992 -0.07990932 C33.68263742 -0.09845921 36.47781589 -0.09794073 39.27326965 -0.0922718 C41.23213894 -0.09204775 43.1909872 -0.10880273 45.14978027 -0.12608337 C55.91455227 -0.04359148 66.20998643 1.94223828 75.25976562 8.02905273 C76.16339844 8.61944336 77.06703125 9.20983398 77.99804688 9.81811523 C78.64128906 10.34147461 79.28453125 10.86483398 79.94726562 11.40405273 C79.94726562 12.06405273 79.94726562 12.72405273 79.94726562 13.40405273 C80.53378906 13.6219043 81.1203125 13.83975586 81.72460938 14.06420898 C84.69705908 15.85603719 85.74787293 17.85432647 87.50976562 20.84155273 C87.84637207 21.40648438 88.18297852 21.97141602 88.52978516 22.5534668 C89.68161655 24.49650221 90.81553515 26.44924555 91.94726562 28.40405273 C92.58075928 29.49194092 92.58075928 29.49194092 93.22705078 30.60180664 C95.54595115 34.58494894 97.85379542 38.57432113 100.15429688 42.56811523 C102.7492228 47.06909633 105.37218003 51.55296073 108.00976562 56.02905273 C108.4182373 56.72224609 108.82670898 57.41543945 109.24755859 58.12963867 C110.06932572 59.52362087 110.89126521 60.91750146 111.71337891 62.3112793 C113.37626557 65.13167195 115.0361846 67.953805 116.69580078 70.77612305 C117.52716555 72.18973509 118.3588689 73.60314805 119.19091797 75.01635742 C121.31763798 78.62902814 123.43933833 82.24450677 125.55273438 85.86499023 C129.17699809 92.06496282 132.79817345 98.24617165 136.69726562 104.27905273 C139.39993575 108.4706939 141.81204554 112.75132801 144.16601562 117.14624023 C151.03176731 129.70333871 158.4382166 141.97680772 165.70898438 154.30249023 C166.96791515 156.43909831 168.22367854 158.57753814 169.47851562 160.71655273 C169.8972998 161.42972656 170.31608398 162.14290039 170.74755859 162.87768555 C171.58395337 164.30327757 172.41893268 165.72970107 173.25244141 167.15698242 C175.27581508 170.61121038 177.33074301 174.03624972 179.47070312 177.41967773 C187.19598055 189.69647212 190.83761887 200.63660376 188.47851562 215.32202148 C186.90914025 221.94515924 184.14627157 228.01201446 179.94726562 233.40405273 C179.28726563 233.40405273 178.62726563 233.40405273 177.94726562 233.40405273 C177.7178125 233.98155273 177.48835937 234.55905273 177.25195312 235.15405273 C173.12521008 242.27083115 163.80449682 246.57664633 156.17382812 248.77514648 C142.21989578 251.49498076 129.81218088 248.60921025 118.07226562 240.71655273 C115.64257812 238.95483398 115.64257812 238.95483398 113.94726562 237.40405273 C113.94726562 236.74405273 113.94726562 236.08405273 113.94726562 235.40405273 C113.28726563 235.40405273 112.62726563 235.40405273 111.94726562 235.40405273 C106.77387812 229.33580901 102.97779979 222.12998447 99.09179688 215.20483398 C96.88881495 211.28086756 94.61172862 207.40303238 92.32226562 203.52905273 C88.26069398 196.64476414 84.22303365 189.74684001 80.19726562 182.84155273 C79.60478027 181.82528809 79.01229492 180.80902344 78.40185547 179.76196289 C77.18839774 177.68030311 75.97501937 175.59859706 74.76171875 173.5168457 C71.82485535 168.47849689 68.88598132 163.4413213 65.94726562 158.40405273 C64.78058883 156.40405864 63.61392218 154.40405863 62.44726562 152.40405273 C61.86976562 151.41405273 61.29226562 150.42405273 60.69726562 149.40405273 C51.07226562 132.90405273 51.07226562 132.90405273 41.44726562 116.40405273 C40.86984619 115.41421387 40.29242676 114.424375 39.69750977 113.40454102 C38.52994835 111.40296063 37.36246798 109.40133296 36.19506836 107.3996582 C33.29275147 102.42344881 30.38906646 97.44804819 27.48242188 92.47436523 C20.81173765 81.05607691 14.1737997 69.61973392 7.5793457 58.15722656 C4.40752304 52.64875181 1.2181543 47.15170199 -2.00585938 41.67358398 C-2.64330078 40.58883789 -3.28074219 39.5040918 -3.9375 38.38647461 C-5.14620568 36.33230778 -6.35823977 34.28009435 -7.57421875 32.23022461 C-15.99738028 17.90586589 -15.99738028 17.90586589 -15.05273438 9.40405273 C-11.62048892 2.66668203 -7.49745535 0.03853893 0 0 Z " fill="#693FA2" transform="translate(37.052734375,11.595947265625)"/>
<path d="M0 0 C1.84739021 -0.00642769 1.84739021 -0.00642769 3.73210144 -0.01298523 C6.31447742 -0.018689 8.89686946 -0.01925825 11.47924805 -0.01489258 C15.4245926 -0.01171341 19.36919992 -0.03530862 23.31445312 -0.06054688 C25.83463448 -0.06281838 28.35481783 -0.06352406 30.875 -0.0625 C32.04803177 -0.07170975 33.22106354 -0.08091949 34.42964172 -0.09040833 C40.58793693 -0.05559757 45.21412525 0.21361999 50.60546875 3.30078125 C54.03385117 6.90960485 55.4707418 9.54933094 55.85546875 14.55078125 C55.39875116 21.40154503 51.76915164 26.97419172 48.29296875 32.73828125 C47.39397588 34.24836743 46.49557227 35.75880451 45.59765625 37.26953125 C45.11522461 38.0790625 44.63279297 38.88859375 44.13574219 39.72265625 C41.37141103 44.37985743 38.64547574 49.05944916 35.91796875 53.73828125 C35.32701416 54.75172607 34.73605957 55.7651709 34.12719727 56.80932617 C24.45732942 73.40678321 14.87831328 90.05612607 5.35546875 106.73828125 C-11.18001089 135.70239905 -11.18001089 135.70239905 -18.75805664 148.22509766 C-23.13825929 155.48627154 -27.37206225 162.83396122 -31.6105957 170.1784668 C-32.18640381 171.17144775 -32.76221191 172.16442871 -33.35546875 173.1875 C-33.86899902 174.07655029 -34.3825293 174.96560059 -34.91162109 175.8815918 C-36.29196862 178.13346266 -37.77163746 180.21908577 -39.39453125 182.30078125 C-41.18652344 182.12817383 -41.18652344 182.12817383 -43.39453125 181.30078125 C-45.06347656 179.0612793 -45.06347656 179.0612793 -46.72265625 176.0625 C-47.34914062 174.94681641 -47.975625 173.83113281 -48.62109375 172.68164062 C-49.29567611 171.45057737 -49.9701523 170.21945594 -50.64453125 168.98828125 C-51.35409183 167.71602796 -52.06505242 166.44455457 -52.77734375 165.17382812 C-54.25741282 162.5308299 -55.73137279 159.88456209 -57.20117188 157.23583984 C-60.5428933 151.22541836 -63.97357794 145.26635741 -67.39453125 139.30078125 C-68.70844831 136.9961593 -70.02224961 134.69147134 -71.3359375 132.38671875 C-73.79619317 128.07444181 -76.27752706 123.77515291 -78.77938843 119.48687744 C-80.27547425 116.92086866 -81.76482079 114.35097898 -83.25366211 111.78076172 C-83.96481996 110.55744785 -84.6792697 109.33604095 -85.3972168 108.11669922 C-86.39293735 106.42512581 -87.3764136 104.72636315 -88.359375 103.02734375 C-89.20423462 101.58222412 -89.20423462 101.58222412 -90.06616211 100.10791016 C-91.49582691 97.0867218 -92.13872244 94.62916039 -92.39453125 91.30078125 C-90.91796875 88.1875 -90.91796875 88.1875 -88.76953125 84.98828125 C-88.01549268 83.83557245 -87.26288785 82.68192451 -86.51171875 81.52734375 C-85.81304687 80.46257812 -85.114375 79.3978125 -84.39453125 78.30078125 C-83.5412039 76.83305821 -82.70476386 75.35522682 -81.89453125 73.86328125 C-74.86491033 61.00647456 -67.38554415 48.40362358 -59.88964844 35.81494141 C-58.59647007 33.64035766 -57.31120428 31.46133746 -56.02734375 29.28125 C-48.37635594 16.49487153 -39.78981261 7.25077181 -25.39453125 2.30078125 C-16.95385645 0.36881148 -8.62817157 -0.00676215 0 0 Z " fill="#7850AF" transform="translate(284.39453125,10.69921875)"/>
<path d="M0 0 C12.185872 5.03453866 19.49644815 19.02204661 24.25 30.4375 C28.92741177 41.89212935 29.34766154 53.19025595 29.31567383 65.40600586 C29.31251027 67.92931228 29.3360597 70.45144671 29.36132812 72.97460938 C29.41643233 86.59531377 27.09675607 97.40165005 21.109375 109.67578125 C19.77607817 113.67097704 20.1661006 115.89668551 21 120 C22.57330336 131.2498031 23.24030222 142.52133244 23.375 153.875 C23.41379272 155.54139526 23.41379272 155.54139526 23.45336914 157.24145508 C23.46812644 163.45808573 23.26239832 167.32233125 19 172 C15.04019789 174.39672233 12.41558328 173.97550403 8 173 C5.46044922 171.86010742 5.46044922 171.86010742 2.9296875 170.41796875 C1.97803711 169.87833496 1.02638672 169.33870117 0.04589844 168.78271484 C-5.2840487 165.66318342 -10.59023921 162.50801026 -15.875 159.3125 C-16.97585938 158.64927734 -18.07671875 157.98605469 -19.2109375 157.30273438 C-21.24525195 156.07696116 -23.27901625 154.85027402 -25.31201172 153.62231445 C-26.64256592 152.8192688 -26.64256592 152.8192688 -28 152 C-28.76272217 151.44328613 -29.52544434 150.88657227 -30.3112793 150.31298828 C-34.03419496 148.49496953 -37.53666321 148.59717287 -41.58984375 148.62890625 C-43.27799684 148.61152563 -44.96614784 148.59394123 -46.65429688 148.57617188 C-49.2984603 148.56610308 -51.94248812 148.56250322 -54.58666992 148.56420898 C-57.15063327 148.56062836 -59.71356487 148.5332513 -62.27734375 148.50390625 C-63.06189438 148.51208878 -63.84644501 148.5202713 -64.6547699 148.52870178 C-69.88582332 148.45816062 -72.82542795 147.42160309 -77 144 C-78.95193815 141.45399372 -79.04176207 140.40496873 -78.71069336 137.19458008 C-77.97401397 133.8831923 -76.92547764 131.66227365 -75.19140625 128.76171875 C-74.61455078 127.78589844 -74.03769531 126.81007813 -73.44335938 125.8046875 C-72.82267578 124.77601563 -72.20199219 123.74734375 -71.5625 122.6875 C-70.60633789 121.07681641 -70.60633789 121.07681641 -69.63085938 119.43359375 C-68.34767668 117.27298804 -67.0607839 115.11458102 -65.77001953 112.95849609 C-63.49222331 109.15127753 -61.24463585 105.32681878 -59 101.5 C-58.20712127 100.15359281 -57.41414992 98.80724018 -56.62109375 97.4609375 C-48.7515523 84.08179518 -40.95196088 70.66137771 -33.18383789 57.22314453 C-29.47213145 50.80592935 -25.7378392 44.40202224 -22 38 C-17.61325236 30.48594128 -13.23420371 22.96757654 -8.875 15.4375 C-8.43800781 14.68275391 -8.00101562 13.92800781 -7.55078125 13.15039062 C-5.01986289 8.7748374 -2.50415471 4.39092566 0 0 Z " fill="#8163C2" transform="translate(316,113)"/>
<path d="M0 0 C3.9761282 1.6017578 6.67101247 4.3736223 9.625 7.375 C10.11484375 7.85710937 10.6046875 8.33921875 11.109375 8.8359375 C13.63209098 11.37243881 15.65545345 13.66236091 17 17 C16.01 17 15.02 17 14 17 C13.01 15.515 13.01 15.515 12 14 C10.79091013 15.95786633 9.58277563 17.91632266 8.375 19.875 C7.70210938 20.96554688 7.02921875 22.05609375 6.3359375 23.1796875 C1.34011132 31.3245571 -3.50929052 39.55294592 -8.3125 47.8125 C-13.49356985 56.70704657 -18.68403207 65.5959939 -23.88803101 74.47714233 C-24.61921277 75.72508982 -25.35019591 76.97315371 -26.08096313 78.22134399 C-30.34605151 85.50592038 -34.6387536 92.77248741 -39 100 C-42.18639502 105.28505405 -45.35008387 110.5825671 -48.47900391 115.90185547 C-49.32904626 117.34689481 -50.18029141 118.79122725 -51.03271484 120.23486328 C-53.29614734 124.07396366 -55.53153546 127.92601964 -57.7265625 131.8046875 C-58.39220215 132.96859009 -58.39220215 132.96859009 -59.07128906 134.15600586 C-59.92309642 135.64666873 -60.76658731 137.14212314 -61.60058594 138.64282227 C-63.18650343 141.40233191 -64.50545238 143.64818028 -67.125 145.51171875 C-69.99322579 146.25865255 -71.48472148 145.45621388 -74 144 C-75.3125 141.875 -75.3125 141.875 -76 140 C-76.99 140 -77.98 140 -79 140 C-78.46821118 135.61964466 -77.45107001 132.54142402 -75.19140625 128.76171875 C-74.61455078 127.78589844 -74.03769531 126.81007813 -73.44335938 125.8046875 C-72.82267578 124.77601563 -72.20199219 123.74734375 -71.5625 122.6875 C-70.60633789 121.07681641 -70.60633789 121.07681641 -69.63085938 119.43359375 C-68.34767668 117.27298804 -67.0607839 115.11458102 -65.77001953 112.95849609 C-63.49222331 109.15127753 -61.24463585 105.32681878 -59 101.5 C-58.20712127 100.15359281 -57.41414992 98.80724018 -56.62109375 97.4609375 C-48.7515523 84.08179518 -40.95196088 70.66137771 -33.18383789 57.22314453 C-29.47213145 50.80592935 -25.7378392 44.40202224 -22 38 C-17.61325236 30.48594128 -13.23420371 22.96757654 -8.875 15.4375 C-8.43800781 14.68275391 -8.00101562 13.92800781 -7.55078125 13.15039062 C-5.01986289 8.7748374 -2.50415471 4.39092566 0 0 Z " fill="#604B94" transform="translate(316,113)"/>
<path d="M0 0 C-0.03480469 1.08796875 -0.06960937 2.1759375 -0.10546875 3.296875 C-0.71127819 29.66917651 12.74777578 50.00687394 26 72 C26.64855957 73.07652832 27.29711914 74.15305664 27.96533203 75.26220703 C34.81381992 86.73735471 34.81381992 86.73735471 42 98 C42 98.99 42 99.98 42 101 C42.99 101.495 42.99 101.495 44 102 C42.9326323 103.98782243 41.84554158 105.96506484 40.75 107.9375 C40.14671875 109.03964844 39.5434375 110.14179688 38.921875 111.27734375 C37 114 37 114 34.765625 114.87890625 C33.89164063 114.93884766 33.89164063 114.93884766 33 115 C25.46960698 102.70035807 18.34447343 90.16979349 11.21113586 77.63760376 C8.3715471 72.64935969 5.52363008 67.66592201 2.67156982 62.68479919 C0.95967511 59.69452436 -0.74986377 56.702966 -2.453125 53.70776367 C-5.27599341 48.74684169 -8.10639964 43.79541253 -11.0390625 38.8984375 C-11.47420166 38.16077148 -11.90934082 37.42310547 -12.35766602 36.66308594 C-13.125707 35.36387497 -13.90623252 34.07190782 -14.70288086 32.79003906 C-16.34525213 29.984744 -17.00516783 28.19416287 -16.91796875 24.91796875 C-15.91795846 21.73921264 -14.62462987 19.43831558 -12.75 16.6875 C-9.95028469 12.48792704 -7.445673 8.26569426 -5.140625 3.77734375 C-3.90835342 1.85719454 -2.53837117 0 0 0 Z " fill="#634897" transform="translate(209,78)"/>
<path d="M0 0 C0.99 1.485 0.99 1.485 2 3 C1.46632813 3.88558594 0.93265625 4.77117188 0.3828125 5.68359375 C-7.74681221 19.19230166 -15.735612 32.78049518 -23.61938477 46.43408203 C-26.1712129 50.85099697 -28.73523528 55.26031443 -31.31640625 59.66015625 C-37.39707519 70.03054175 -43.39864117 80.43571625 -49.25 90.9375 C-54.69545606 100.71047081 -60.26030939 110.39719706 -66 120 C-66.38494629 120.64614258 -66.76989258 121.29228516 -67.16650391 121.95800781 C-69.4021664 125.71002454 -71.65154493 129.45337044 -73.91210938 133.19042969 C-75.03031622 135.05042725 -76.13300777 136.91905282 -77.234375 138.7890625 C-77.94764035 139.9845399 -78.66117077 141.17985921 -79.375 142.375 C-80.00148438 143.43460938 -80.62796875 144.49421875 -81.2734375 145.5859375 C-83 148 -83 148 -86 149 C-86 148.01 -86 147.02 -86 146 C-85.34 146 -84.68 146 -84 146 C-83.68289062 144.81664062 -83.68289062 144.81664062 -83.359375 143.609375 C-81.54325898 138.78727384 -78.94486361 134.62751016 -76.25 130.25 C-75.73695313 129.40695313 -75.22390625 128.56390625 -74.6953125 127.6953125 C-73.65297736 125.98253064 -72.6089307 124.27078925 -71.56323242 122.56005859 C-66.79089499 114.74454551 -62.17638199 106.85673831 -57.6875 98.875 C-57.12208496 97.87307617 -56.55666992 96.87115234 -55.97412109 95.83886719 C-53.43890501 91.34412984 -50.91056924 86.84579619 -48.40234375 82.3359375 C-44.65834372 75.61286593 -40.79981313 69.02115694 -36.609375 62.5625 C-34.43614921 59.10221817 -32.51403928 55.52862594 -30.58203125 51.9296875 C-25.57998529 42.66663942 -20.21910079 33.67948904 -14.59326172 24.78637695 C-11.1520473 19.3179524 -7.98674354 13.7306624 -5 8 C-4.34 8 -3.68 8 -3 8 C-2.814375 6.8553125 -2.814375 6.8553125 -2.625 5.6875 C-2 3 -2 3 0 0 Z " fill="#835ABC" transform="translate(337,30)"/>
<path d="M0 0 C2.82190872 2.51262923 4.47378339 5.31841263 6.328125 8.59375 C6.96363281 9.7075 7.59914062 10.82125 8.25390625 11.96875 C8.91964706 13.14562058 9.58501019 14.3227049 10.25 15.5 C14.51067223 23.01381075 18.82365942 30.44261889 23.54589844 37.67773438 C25 40 25 40 26.09082031 42.24804688 C27.32124411 44.61902464 28.57655188 44.88652384 31 46 C32.010625 46.78375 33.02125 47.5675 34.0625 48.375 C42.28457048 54.37728904 52.94968752 56.8324807 63 56 C70.61833556 54.72693603 76.7950387 52.60649352 83 48 C83.86625 47.4225 84.7325 46.845 85.625 46.25 C96.18896442 36.2420337 98.75166822 22.72845013 101 9 C101.33 9 101.66 9 102 9 C102.54627138 21.72609991 101.04042893 32.67510379 93 43 C92.34 43 91.68 43 91 43 C90.77054687 43.5775 90.54109375 44.155 90.3046875 44.75 C86.17794446 51.86677842 76.85723119 56.1725936 69.2265625 58.37109375 C55.27263015 61.09092802 42.86491525 58.20515751 31.125 50.3125 C28.6953125 48.55078125 28.6953125 48.55078125 27 47 C27 46.34 27 45.68 27 45 C26.34 45 25.68 45 25 45 C19.84761416 38.95639066 16.05580643 31.78389278 12.19921875 24.87890625 C10.60801253 22.04099696 8.95555288 19.24745526 7.26953125 16.46484375 C6.80973877 15.70179932 6.34994629 14.93875488 5.8762207 14.15258789 C4.97396241 12.65938803 4.06515765 11.17012 3.14916992 9.68530273 C2.73900635 9.00282471 2.32884277 8.32034668 1.90625 7.6171875 C1.53822266 7.01503418 1.17019531 6.41288086 0.79101562 5.79248047 C0 4 0 4 0 0 Z " fill="#9866E1" transform="translate(124,202)"/>
<path d="M0 0 C4.35574208 -0.1501051 8.71005266 -0.25802123 13.06762695 -0.32958984 C14.54478221 -0.35947031 16.02176466 -0.40019224 17.49829102 -0.45263672 C27.47080608 -0.79756603 34.5546256 0.19929819 43 6 C44.29413364 6.76690548 45.59311851 7.52572884 46.8984375 8.2734375 C48.05850375 8.97194928 49.21736329 9.6724691 50.375 10.375 C51.00365967 10.75148682 51.63231934 11.12797363 52.2800293 11.51586914 C55.38987616 13.38521657 58.46572241 15.28929396 61.49609375 17.28515625 C67.92333315 21.45642705 73.29695463 24.30446543 81 25 C81 24.34 81 23.68 81 23 C81.99 23 82.98 23 84 23 C85.18695553 19.43913342 85.35095418 16.02668976 85.5625 12.3125 C85.62727539 11.2596582 85.62727539 11.2596582 85.69335938 10.18554688 C85.7991736 8.45724794 85.90006581 6.7286489 86 5 C86.99 5.495 86.99 5.495 88 6 C88.68808708 19.95287688 88.68808708 19.95287688 86.3125 23.75 C83.82715592 26.16817262 82.38608975 27.27440934 79 28 C74.74354013 27.54632313 71.63635496 26.53018992 67.9296875 24.41796875 C66.97803711 23.87833496 66.02638672 23.33870117 65.04589844 22.78271484 C59.7159513 19.66318342 54.40976079 16.50801026 49.125 13.3125 C48.02414062 12.64927734 46.92328125 11.98605469 45.7890625 11.30273438 C43.75474805 10.07696116 41.72098375 8.85027402 39.68798828 7.62231445 C38.80095215 7.08695068 37.91391602 6.55158691 37 6 C36.21455811 5.44618652 35.42911621 4.89237305 34.61987305 4.32177734 C31.15138007 2.5718546 28.38649842 2.5654681 24.51171875 2.48828125 C23.80852005 2.47033005 23.10532135 2.45237885 22.3808136 2.43388367 C20.14976883 2.3799952 17.9189353 2.34595588 15.6875 2.3125 C14.16859053 2.27930776 12.64970886 2.24481633 11.13085938 2.20898438 C7.42077584 2.12428305 3.7106183 2.05736926 0 2 C0 1.34 0 0.68 0 0 Z " fill="#9272DF" transform="translate(251,259)"/>
<path d="M0 0 C0.66 0 1.32 0 2 0 C1.41640244 3.86009332 0.28579206 6.61666195 -1.703125 9.96484375 C-2.26499512 10.9189917 -2.82686523 11.87313965 -3.40576172 12.85620117 C-4.31865967 14.38144409 -4.31865967 14.38144409 -5.25 15.9375 C-5.87535645 16.99493408 -6.50071289 18.05236816 -7.14501953 19.1418457 C-8.44756269 21.34306172 -9.75310511 23.54250552 -11.06152344 25.74023438 C-12.89685881 28.82655652 -14.7204732 31.91941268 -16.5390625 35.015625 C-19.2074721 39.55708997 -21.89014286 44.08978853 -24.58398438 48.61621094 C-25.89063733 50.81589359 -27.18790709 53.02086955 -28.484375 55.2265625 C-29.19717264 56.42231883 -29.91064989 57.61767047 -30.625 58.8125 C-31.21539062 59.80894531 -31.80578125 60.80539063 -32.4140625 61.83203125 C-34 64 -34 64 -37 65 C-37 64.01 -37 63.02 -37 62 C-36.34 62 -35.68 62 -35 62 C-34.78859375 61.21109375 -34.5771875 60.4221875 -34.359375 59.609375 C-32.54325898 54.78727384 -29.94486361 50.62751016 -27.25 46.25 C-26.73695313 45.40695313 -26.22390625 44.56390625 -25.6953125 43.6953125 C-24.65235361 41.98150568 -23.60773603 40.26870726 -22.56152344 38.55688477 C-17.62841631 30.47926891 -12.88045726 22.3174876 -8.25 14.0625 C-7.11044524 12.03195109 -5.96986695 10.00197615 -4.828125 7.97265625 C-4.3321582 7.08843994 -3.83619141 6.20422363 -3.32519531 5.29321289 C-2.28264882 3.48911577 -1.15581069 1.73371603 0 0 Z " fill="#905ECF" transform="translate(288,114)"/>
<path d="M0 0 C2.82190872 2.51262923 4.47378339 5.31841263 6.328125 8.59375 C6.96363281 9.7075 7.59914062 10.82125 8.25390625 11.96875 C8.91964706 13.14562058 9.58501019 14.3227049 10.25 15.5 C14.51067223 23.01381075 18.82365942 30.44261889 23.54589844 37.67773438 C25 40 25 40 26.09082031 42.24804688 C27.32124411 44.61902464 28.57655188 44.88652384 31 46 C31.969375 46.763125 32.93875 47.52625 33.9375 48.3125 C39.03744386 52.07035337 45.0780376 53.90727645 51 56 C51 56.33 51 56.66 51 57 C42.75428211 58.12441608 35.64120051 53.63912625 29.1328125 48.921875 C28.42898437 48.28765625 27.72515625 47.6534375 27 47 C27 46.34 27 45.68 27 45 C26.34 45 25.68 45 25 45 C19.84761416 38.95639066 16.05580643 31.78389278 12.19921875 24.87890625 C10.60801253 22.04099696 8.95555288 19.24745526 7.26953125 16.46484375 C6.80973877 15.70179932 6.34994629 14.93875488 5.8762207 14.15258789 C4.97396241 12.65938803 4.06515765 11.17012 3.14916992 9.68530273 C2.73900635 9.00282471 2.32884277 8.32034668 1.90625 7.6171875 C1.53822266 7.01503418 1.17019531 6.41288086 0.79101562 5.79248047 C0 4 0 4 0 0 Z " fill="#9264DB" transform="translate(124,202)"/>
<path d="M0 0 C1.83738235 -0.00472824 1.83738235 -0.00472824 3.71188354 -0.009552 C5.05027299 -0.0077617 6.3886621 -0.00571062 7.72705078 -0.00341797 C9.10084043 -0.00409177 10.47462995 -0.00506243 11.84841919 -0.00631714 C14.72838475 -0.00779153 17.60831929 -0.00564852 20.48828125 -0.00097656 C24.17246418 0.00470985 27.85657409 0.00144701 31.54075432 -0.00454903 C34.37867783 -0.00817078 37.21658417 -0.00700845 40.05450821 -0.00442123 C41.41242608 -0.00375587 42.77034554 -0.00456669 44.12826157 -0.00690079 C46.03081989 -0.00945258 47.9333837 -0.00487088 49.8359375 0 C50.91720917 0.00079559 51.99848083 0.00159119 53.11251831 0.00241089 C55.86766314 0.12161934 58.36619628 0.50485182 61.04736328 1.12939453 C59.04736328 3.12939453 59.04736328 3.12939453 56.44877625 3.34971619 C55.34911026 3.33622635 54.24944427 3.32273651 53.11645508 3.30883789 C51.87143723 3.29900375 50.62641937 3.28916962 49.34367371 3.27903748 C48.34264146 3.26424756 48.34264146 3.26424756 47.32138634 3.24915886 C45.23211023 3.21902958 43.14311312 3.20219731 41.05366516 3.18910217 C35.11263014 3.14932797 29.17193057 3.08441537 23.23120117 3.01293945 C19.59794083 2.97014763 15.96479508 2.94209632 12.33133888 2.92263985 C10.9482439 2.91209023 9.56518036 2.8957125 8.18222618 2.87333488 C6.24380874 2.84203104 4.30509777 2.83088285 2.36645508 2.82055664 C1.26440231 2.8078624 0.16234955 2.79516815 -0.97309875 2.78208923 C-5.11479326 3.26485954 -7.7218432 4.89860102 -10.64013672 7.81689453 C-11.07326172 8.25001953 -11.50638672 8.68314453 -11.95263672 9.12939453 C-12.61263672 9.12939453 -13.27263672 9.12939453 -13.95263672 9.12939453 C-12.7745562 5.77639613 -11.7585706 3.37414163 -8.95263672 1.12939453 C-5.72517912 0.05357533 -3.39406718 0.00250101 0 0 Z " fill="#542395" transform="translate(36.95263671875,11.87060546875)"/>
<path d="M0 0 C0.66 0 1.32 0 2 0 C3.61795559 2.47128189 5.1057084 4.93516387 6.5625 7.5 C7.00722656 8.26957031 7.45195312 9.03914063 7.91015625 9.83203125 C11.18415716 15.51502714 14.39502187 21.23403689 17.5949707 26.95898438 C20.42230743 32.0069546 23.31782841 37.01224026 26.25 42 C26.65025391 42.68191406 27.05050781 43.36382812 27.46289062 44.06640625 C27.85154297 44.72511719 28.24019531 45.38382813 28.640625 46.0625 C29.02025391 46.70832031 29.39988281 47.35414062 29.79101562 48.01953125 C30.64162726 49.41294029 31.52954031 50.7839203 32.44335938 52.13671875 C32.91064453 52.83410156 33.37792969 53.53148437 33.859375 54.25 C34.29217773 54.87390625 34.72498047 55.4978125 35.17089844 56.140625 C36.21730512 58.48733681 35.85115634 59.62882796 35 62 C28.94198467 52.4387873 23.30205106 42.64552728 17.66113281 32.83422852 C13.86276219 26.22805583 10.05084583 19.63091547 6.1875 13.0625 C5.78547363 12.37768555 5.38344727 11.69287109 4.96923828 10.98730469 C3.37184336 8.27712566 1.74561295 5.61841942 0 3 C0 2.01 0 1.02 0 0 Z " fill="#53219B" transform="translate(23,30)"/>
<path d="M0 0 C3.22738429 3.82477822 5.81941592 7.86504112 8.3125 12.1875 C8.72838379 12.9000293 9.14426758 13.61255859 9.57275391 14.34667969 C12.35519934 19.12485832 15.10226365 23.92311806 17.84765625 28.72265625 C18.85619304 30.48201864 19.86500175 32.24122487 20.87387085 34.00039673 C21.8599753 35.72374238 22.84079674 37.45010752 23.8215332 39.17651367 C24.43472412 40.24748291 25.04791504 41.31845215 25.6796875 42.421875 C26.49542236 43.85418457 26.49542236 43.85418457 27.32763672 45.31542969 C29.03659233 48.05874003 30.98155534 50.48056098 33 53 C33.75 55.3125 33.75 55.3125 34 57 C32.21020508 56.83178711 32.21020508 56.83178711 30 56 C28.31518555 53.72875977 28.31518555 53.72875977 26.63671875 50.69140625 C25.68720337 48.99927002 25.68720337 48.99927002 24.71850586 47.27294922 C24.04121253 46.03629235 23.36421735 44.79947215 22.6875 43.5625 C21.98773768 42.30411077 21.28663077 41.04646837 20.58422852 39.78955078 C19.49560645 37.84138778 18.40789753 35.89278368 17.32493591 33.94146729 C14.80136564 29.40073557 12.21258405 24.90298496 9.578125 20.42578125 C9.22696121 19.82707718 8.87579742 19.22837311 8.51399231 18.61152649 C6.82796261 15.73735852 5.13591539 12.86721312 3.43432617 10.00219727 C2.83595947 8.97795654 2.23759277 7.95371582 1.62109375 6.8984375 C0.82336548 5.54758057 0.82336548 5.54758057 0.00952148 4.16943359 C-0.32362061 3.45352051 -0.6567627 2.73760742 -1 2 C-0.67 1.34 -0.34 0.68 0 0 Z " fill="#6E52A7" transform="translate(211,136)"/>
<path d="M0 0 C0.66 0.33 1.32 0.66 2 1 C1.86981675 8.29026192 -0.40748606 13.73756961 -3.64868164 20.15039062 C-5.91834712 24.8723183 -6.18475567 27.73993296 -5 33 C-4.21146585 39.36668312 -3.89653286 45.58503716 -4 52 C-4.99 52.495 -4.99 52.495 -6 53 C-6 50.36 -6 47.72 -6 45 C-6.33 45 -6.66 45 -7 45 C-7.13277344 44.11957031 -7.26554687 43.23914063 -7.40234375 42.33203125 C-7.57894531 41.17058594 -7.75554687 40.00914062 -7.9375 38.8125 C-8.19853516 37.08966797 -8.19853516 37.08966797 -8.46484375 35.33203125 C-8.94259996 32.09248613 -8.94259996 32.09248613 -9.640625 29.3125 C-10.4091847 24.36698544 -7.27160206 19.46758419 -5 15.1875 C-2.50125389 10.37260845 -1.27345048 5.24815956 0 0 Z " fill="#9167D7" transform="translate(342,200)"/>
<path d="M0 0 C0.33 0.99 0.66 1.98 1 3 C-0.375 4.5 -0.375 4.5 -2 6 C-2.66 6 -3.32 6 -4 6 C-4.08894531 6.70253906 -4.17789063 7.40507813 -4.26953125 8.12890625 C-5.41727164 12.64007835 -8.14359189 16.1189975 -10.69921875 19.96484375 C-12.30096527 22.91956869 -12.30096527 22.91956869 -11.43359375 25.94921875 C-9.84791877 29.32363879 -8.17457359 32.60910719 -6.375 35.875 C-5.74335938 37.02742188 -5.11171875 38.17984375 -4.4609375 39.3671875 C-3.97882813 40.23601562 -3.49671875 41.10484375 -3 42 C-3.99 42 -4.98 42 -6 42 C-7.54193728 39.46917897 -9.05800484 36.92794722 -10.5625 34.375 C-11.21895508 33.30572266 -11.21895508 33.30572266 -11.88867188 32.21484375 C-13.84296096 28.8602373 -15.00371803 26.75754802 -14.984375 22.81640625 C-13.89653294 19.70396925 -12.53693219 17.29110552 -10.6875 14.5625 C-7.95423689 10.44573334 -5.39913552 6.31844393 -3 2 C-2.34 2 -1.68 2 -1 2 C-0.67 1.34 -0.34 0.68 0 0 Z " fill="#5B3F96" transform="translate(207,80)"/>
<path d="M0 0 C0.66 0.66 1.32 1.32 2 2 C-0.83458444 7.77372322 -3.74366828 13.45217559 -7 19 C-7.66 19 -8.32 19 -9 19 C-9.11480713 19.73371826 -9.22961426 20.46743652 -9.34790039 21.22338867 C-10.01340569 24.05708085 -10.92780994 25.95083916 -12.43359375 28.42578125 C-12.91763672 29.22177734 -13.40167969 30.01777344 -13.90039062 30.83789062 C-14.40763672 31.65451172 -14.91488281 32.47113281 -15.4375 33.3125 C-15.94087891 34.14845703 -16.44425781 34.98441406 -16.96289062 35.84570312 C-19.77873664 40.42659471 -19.77873664 40.42659471 -21 42 C-21.66 42 -22.32 42 -23 42 C-21.66516575 38.4746988 -20.10730361 35.24671553 -18.2421875 31.97265625 C-17.70231201 31.02140869 -17.16243652 30.07016113 -16.60620117 29.09008789 C-16.03490479 28.09098389 -15.4636084 27.09187988 -14.875 26.0625 C-14.00355347 24.5300061 -14.00355347 24.5300061 -13.11450195 22.96655273 C-11.41286068 19.97586801 -9.70699711 16.98763021 -8 14 C-7.12097898 12.45839877 -6.24205916 10.91673983 -5.36328125 9.375 C-3.57945637 6.24773921 -1.7914676 3.12289065 0 0 Z " fill="#5D49A8" transform="translate(277,180)"/>
<path d="M0 0 C4.18736668 -0.08760181 8.37449531 -0.14059435 12.5625 -0.1875 C13.74392578 -0.21263672 14.92535156 -0.23777344 16.14257812 -0.26367188 C23.56013955 -0.32600432 28.77676504 0.00286551 34.9375 4.375 C36.40919686 6.62583049 36.21305693 8.3722979 36 11 C35.401875 10.21625 34.80375 9.4325 34.1875 8.625 C31.67176971 5.60612365 30.13962586 4.12889507 26.1809082 3.68115234 C24.50774536 3.634021 24.50774536 3.634021 22.80078125 3.5859375 C21.59228516 3.54726562 20.38378906 3.50859375 19.13867188 3.46875 C17.87603516 3.4378125 16.61339844 3.406875 15.3125 3.375 C14.03826172 3.33632812 12.76402344 3.29765625 11.45117188 3.2578125 C8.30092708 3.16342314 5.15069009 3.0778417 2 3 C2 2.34 2 1.68 2 1 C1.34 0.67 0.68 0.34 0 0 Z " fill="#7C56B6" transform="translate(302,11)"/>
<path d="M0 0 C0.66 0 1.32 0 2 0 C1.39458666 4.31794801 -0.16159967 7.49293683 -2.2734375 11.2890625 C-2.59784821 11.87416595 -2.92225891 12.45926941 -3.25650024 13.06210327 C-3.94083337 14.29258036 -4.62851057 15.52120295 -5.31933594 16.74804688 C-6.37298103 18.62141031 -7.41374058 20.50150705 -8.453125 22.3828125 C-14.04209495 32.40124493 -14.04209495 32.40124493 -17 35 C-17.71484375 33.3671875 -17.71484375 33.3671875 -18 31 C-16.62890625 28.2578125 -16.62890625 28.2578125 -14.5625 25.125 C-13.81949493 23.97402182 -13.07868286 22.82162558 -12.33984375 21.66796875 C-11.95425293 21.07032715 -11.56866211 20.47268555 -11.17138672 19.85693359 C-9.22572824 16.77259045 -7.42390716 13.6089813 -5.625 10.4375 C-4.97789062 9.30183594 -4.33078125 8.16617188 -3.6640625 6.99609375 C-2.38102406 4.68602219 -1.15095755 2.37748303 0 0 Z " fill="#7F5BBF" transform="translate(307,80)"/>
<path d="M0 0 C0.66 0 1.32 0 2 0 C3.44873047 2.06030273 3.44873047 2.06030273 5.1171875 4.93359375 C5.72433594 5.97580078 6.33148438 7.01800781 6.95703125 8.09179688 C7.58996094 9.19587891 8.22289062 10.29996094 8.875 11.4375 C9.50019531 12.50677734 10.12539062 13.57605469 10.76953125 14.67773438 C20.16947456 30.92393661 20.16947456 30.92393661 19.75 36.0625 C19.5025 36.701875 19.255 37.34125 19 38 C18.67 38 18.34 38 18 38 C17.89945313 37.47535156 17.79890625 36.95070312 17.6953125 36.41015625 C15.23306127 26.27445084 9.21147184 17.45338538 3.56542969 8.80175781 C3.10813477 8.09631836 2.65083984 7.39087891 2.1796875 6.6640625 C1.76187012 6.03193848 1.34405273 5.39981445 0.91357422 4.74853516 C0 3 0 3 0 0 Z " fill="#8C59CE" transform="translate(205,173)"/>
<path d="M0 0 C2.89592604 2.56587767 4.59019294 5.49682019 6.50390625 8.83984375 C6.82785873 9.40320938 7.15181122 9.96657501 7.48558044 10.54701233 C8.51570935 12.34131174 9.53903596 14.13939243 10.5625 15.9375 C11.25414356 17.14281563 11.94619672 18.34789632 12.63867188 19.55273438 C18.08757947 29.05862728 18.08757947 29.05862728 20 33 C19.01 33 18.02 33 17 33 C15.43774414 30.89208984 15.43774414 30.89208984 13.78515625 27.9609375 C12.87926758 26.37732422 12.87926758 26.37732422 11.95507812 24.76171875 C11.33052734 23.64410156 10.70597656 22.52648437 10.0625 21.375 C8.82580588 19.19441161 7.58756875 17.01469748 6.34765625 14.8359375 C5.77031738 13.81209961 5.19297852 12.78826172 4.59814453 11.73339844 C3.31355091 9.53628414 1.98012222 7.47652408 0.49609375 5.4140625 C-0.24447266 4.21910156 -0.24447266 4.21910156 -1 3 C-0.67 2.01 -0.34 1.02 0 0 Z " fill="#8153C3" transform="translate(124,202)"/>
<path d="M0 0 C3.9761282 1.6017578 6.67101247 4.3736223 9.625 7.375 C10.11484375 7.85710937 10.6046875 8.33921875 11.109375 8.8359375 C13.63209098 11.37243881 15.65545345 13.66236091 17 17 C16.01 17 15.02 17 14 17 C13.34 16.01 12.68 15.02 12 14 C11.34 14 10.68 14 10 14 C8.98648336 12.34151823 7.98879205 10.67334039 7 9 C5.70420353 7.63015802 4.38007251 6.2848951 3 5 C-0.53233755 6.17744585 -0.86308075 6.95605641 -2.6875 10.0625 C-3.12449219 10.79597656 -3.56148438 11.52945313 -4.01171875 12.28515625 C-4.50091797 13.13400391 -4.50091797 13.13400391 -5 14 C-5.68359375 12.328125 -5.68359375 12.328125 -6 10 C-4.78515625 7.421875 -4.78515625 7.421875 -3.0625 4.75 C-2.49660156 3.85796875 -1.93070312 2.9659375 -1.34765625 2.046875 C-0.90292969 1.37140625 -0.45820313 0.6959375 0 0 Z " fill="#57409B" transform="translate(316,113)"/>
<path d="M0 0 C3.85126227 4.45216844 6.65880682 9.34722005 9.5625 14.4375 C10.04396484 15.27087891 10.52542969 16.10425781 11.02148438 16.96289062 C13.48506159 21.24958276 15.84981635 25.54759952 18 30 C17.01 30 16.02 30 15 30 C12.8526318 26.37688727 10.71679183 22.74730218 8.59130859 19.11132812 C7.8668919 17.87576819 7.13937513 16.64202036 6.40869141 15.41015625 C5.35796867 13.63750836 4.31862583 11.85860835 3.28125 10.078125 C2.33862305 8.47565918 2.33862305 8.47565918 1.37695312 6.84082031 C0 4 0 4 0 0 Z " fill="#764CB0" transform="translate(106,171)"/>
<path d="M0 0 C0.66 0 1.32 0 2 0 C1.41279381 3.88529692 0.25117945 6.69534474 -1.72265625 10.08203125 C-2.26083984 11.01337891 -2.79902344 11.94472656 -3.35351562 12.90429688 C-3.91748047 13.86400391 -4.48144531 14.82371094 -5.0625 15.8125 C-5.63033203 16.79154297 -6.19816406 17.77058594 -6.78320312 18.77929688 C-8.18254827 21.18993348 -9.58829929 23.5965851 -11 26 C-11.66 26 -12.32 26 -13 26 C-12.54584653 20.17015235 -10.05231206 16.17251707 -7.0625 11.3125 C-6.60681641 10.55388672 -6.15113281 9.79527344 -5.68164062 9.01367188 C-3.84384894 5.96503648 -1.97498281 2.96247421 0 0 Z " fill="#9254CD" transform="translate(288,114)"/>
<path d="M0 0 C4.02056219 3.50415971 6.24402136 7.62985697 8.75 12.25 C9.16121094 12.99507812 9.57242188 13.74015625 9.99609375 14.5078125 C11.00349544 16.33519231 12.00258786 18.16714863 13 20 C13.66 20 14.32 20 15 20 C15 21.32 15 22.64 15 24 C12.3369479 23.64556757 11.26339144 23.32282583 9.53613281 21.20581055 C9.09624023 20.44051025 8.65634766 19.67520996 8.203125 18.88671875 C7.47802734 17.6327832 7.47802734 17.6327832 6.73828125 16.35351562 C6.24714844 15.47373047 5.75601563 14.59394531 5.25 13.6875 C4.74339844 12.81931641 4.23679688 11.95113281 3.71484375 11.05664062 C0 4.53313469 0 4.53313469 0 0 Z " fill="#6F55BD" transform="translate(230,169)"/>
<path d="M0 0 C0.66 0 1.32 0 2 0 C0.65788025 3.555782 -0.92244697 6.79105167 -2.8203125 10.08203125 C-3.35527344 11.01337891 -3.89023438 11.94472656 -4.44140625 12.90429688 C-4.99699219 13.86400391 -5.55257812 14.82371094 -6.125 15.8125 C-6.68832031 16.79154297 -7.25164062 17.77058594 -7.83203125 18.77929688 C-9.21844415 21.18789555 -10.60785055 23.59471395 -12 26 C-12.99 25.67 -13.98 25.34 -15 25 C-3.71141975 4.91512346 -3.71141975 4.91512346 0 0 Z " fill="#6A58AF" transform="translate(252,224)"/>
<path d="M0 0 C2.71519446 2.71519446 2.62225368 5.34395527 3 9 C3.0928125 9.78117188 3.185625 10.56234375 3.28125 11.3671875 C3.90675965 16.94464855 4.09050193 22.38888049 4 28 C3.34 28.33 2.68 28.66 2 29 C2 26.36 2 23.72 2 21 C1.67 21 1.34 21 1 21 C0.80083984 19.67935547 0.80083984 19.67935547 0.59765625 18.33203125 C0.42105469 17.17058594 0.24445313 16.00914062 0.0625 14.8125 C-0.11152344 13.66394531 -0.28554688 12.51539063 -0.46484375 11.33203125 C-0.93694647 8.08059263 -0.93694647 8.08059263 -1.69140625 5.26171875 C-2 3 -2 3 0 0 Z " fill="#9371E0" transform="translate(334,224)"/>
<path d="M0 0 C3.9792022 3.48636523 6.2382646 7.55151436 8.75 12.125 C9.16121094 12.85332031 9.57242188 13.58164063 9.99609375 14.33203125 C13 19.7310787 13 19.7310787 13 22 C9.40356145 20.80118715 9.11540299 20.00400547 7.265625 16.81640625 C6.77449219 15.97142578 6.28335938 15.12644531 5.77734375 14.25585938 C5.27332031 13.36705078 4.76929688 12.47824219 4.25 11.5625 C3.73050781 10.67755859 3.21101562 9.79261719 2.67578125 8.88085938 C-0.1471033 3.96514662 -0.1471033 3.96514662 -1 2 C-0.67 1.34 -0.34 0.68 0 0 Z " fill="#744FB1" transform="translate(181,131)"/>
<path d="M0 0 C0 6.85318879 -5.90276262 14.58579346 -10 20 C-10.66 20 -11.32 20 -12 20 C-10.41555427 15.67578354 -8.282196 11.73557417 -6 7.75 C-5.64421875 7.11320313 -5.2884375 6.47640625 -4.921875 5.8203125 C-2.24237351 1.12118676 -2.24237351 1.12118676 0 0 Z " fill="#6A55A7" transform="translate(266,202)"/>
<path d="M0 0 C1.43838552 0.79005662 2.87567415 1.58211045 4.3125 2.375 C5.11300781 2.81585937 5.91351563 3.25671875 6.73828125 3.7109375 C8.53527943 4.73513335 10.27900708 5.85267138 12 7 C12 7.66 12 8.32 12 9 C12.598125 9.226875 13.19625 9.45375 13.8125 9.6875 C16.56351888 11.33811133 17.52484637 13.1972081 19 16 C14.71323254 15.5236925 12.88190868 13.01914242 10 10 C6.91233543 7.19956004 3.87384904 4.63893613 0 3 C0 2.01 0 1.02 0 0 Z " fill="#552794" transform="translate(105,16)"/>
<path d="M0 0 C0.33 0 0.66 0 1 0 C1.34937193 8.25552919 0.94397288 15.2370239 -2 23 C-2.66 23 -3.32 23 -4 23 C-3.29885571 17.81970092 -2.41920353 12.69648064 -1.4375 7.5625 C-1.29892578 6.83095703 -1.16035156 6.09941406 -1.01757812 5.34570312 C-0.6797819 3.56353682 -0.34009012 1.78172998 0 0 Z " fill="#9461D5" transform="translate(225,211)"/>
<path d="M0 0 C3.00621497 3.58484484 5.43002885 7.25255049 7.75 11.3125 C8.36359375 12.38113281 8.9771875 13.44976562 9.609375 14.55078125 C10.06828125 15.35902344 10.5271875 16.16726562 11 17 C10.34 17.99 9.68 18.98 9 20 C7.48938849 17.42236925 5.99141595 14.83870395 4.5 12.25 C4.07074219 11.52039063 3.64148438 10.79078125 3.19921875 10.0390625 C2.79316406 9.33007812 2.38710937 8.62109375 1.96875 7.890625 C1.59169922 7.24125977 1.21464844 6.59189453 0.82617188 5.92285156 C0 4 0 4 0 0 Z " fill="#5F30A3" transform="translate(68,106)"/>
<path d="M0 0 C0.33 0.99 0.66 1.98 1 3 C-0.375 4.5 -0.375 4.5 -2 6 C-2.66 6 -3.32 6 -4 6 C-4.061875 6.66 -4.12375 7.32 -4.1875 8 C-5.32136497 12.18657836 -7.59631064 15.42550992 -10 19 C-10.73828125 17.421875 -10.73828125 17.421875 -11 15 C-9.82043622 12.58844738 -8.63819637 10.48372876 -7.1875 8.25 C-6.63352539 7.34701172 -6.63352539 7.34701172 -6.06835938 6.42578125 C-5.10983822 4.90797934 -4.06093849 3.44806594 -3 2 C-2.34 2 -1.68 2 -1 2 C-0.67 1.34 -0.34 0.68 0 0 Z " fill="#513294" transform="translate(207,80)"/>
<path d="M0 0 C4.00523058 1.33507686 5.15889419 3.87337777 7.25 7.3125 C7.81460938 8.18551758 7.81460938 8.18551758 8.390625 9.07617188 C11.06417898 13.41578248 11.06417898 13.41578248 10.734375 16.41796875 C10.49203125 16.94003906 10.2496875 17.46210938 10 18 C0 2.38297872 0 2.38297872 0 0 Z " fill="#7C55BB" transform="translate(194,155)"/>
<path d="M0 0 C0.66 0.33 1.32 0.66 2 1 C2.054138 3.24973447 2.09285491 5.49984383 2.125 7.75 C2.14820313 9.00296875 2.17140625 10.2559375 2.1953125 11.546875 C2.01537302 14.72820492 1.68998582 16.36521896 0 19 C-1.65 19 -3.3 19 -5 19 C-4.01 18.67 -3.02 18.34 -2 18 C-0.81304447 14.43913342 -0.64904582 11.02668976 -0.4375 7.3125 C-0.37272461 6.2596582 -0.37272461 6.2596582 -0.30664062 5.18554688 C-0.2008264 3.45724794 -0.09993419 1.7286489 0 0 Z " fill="#9079E5" transform="translate(337,264)"/>
<path d="M0 0 C0.99 0.33 1.98 0.66 3 1 C0.83951334 4.84086518 -1.35566981 8.65977229 -3.625 12.4375 C-4.23214844 13.45650391 -4.23214844 13.45650391 -4.8515625 14.49609375 C-5.23054687 14.99238281 -5.60953125 15.48867187 -6 16 C-6.66 16 -7.32 16 -8 16 C-6.42986223 10.03347646 -3.24970218 5.17090975 0 0 Z " fill="#7543AD" transform="translate(216,61)"/>
<path d="M0 0 C0.33 0 0.66 0 1 0 C1.33 8.58 1.66 17.16 2 26 C1.01 26 0.02 26 -1 26 C-0.67 17.42 -0.34 8.84 0 0 Z " fill="#8A61CD" transform="translate(343,174)"/>
<path d="M0 0 C4.06762061 1.35587354 4.86334252 3.9484594 6.6875 7.5625 C7.00783203 8.17802734 7.32816406 8.79355469 7.65820312 9.42773438 C8.44746371 10.9473555 9.22487915 12.47311811 10 14 C9.01 14 8.02 14 7 14 C5.17578125 11.4453125 5.17578125 11.4453125 3.3125 8.125 C2.68988281 7.03445312 2.06726563 5.94390625 1.42578125 4.8203125 C0 2 0 2 0 0 Z " fill="#875EC9" transform="translate(134,221)"/>
<path d="M0 0 C0.66 0 1.32 0 2 0 C0.53967505 5.31027254 -1.98320986 9.46330032 -5 14 C-5.66 13.01 -6.32 12.02 -7 11 C-5.88368586 9.16136495 -4.75670373 7.32920277 -3.625 5.5 C-2.99851562 4.4790625 -2.37203125 3.458125 -1.7265625 2.40625 C-1.15679687 1.6121875 -0.58703125 0.818125 0 0 Z " fill="#8565CE" transform="translate(265,154)"/>
<path d="M0 0 C3.69208738 3.29650658 5.86616894 6.57427631 8 11 C7.60546875 13.21875 7.60546875 13.21875 7 15 C5.63594382 12.880788 4.28368225 10.75551882 2.9375 8.625 C2.54755859 8.02171875 2.15761719 7.4184375 1.75585938 6.796875 C0.77539568 5.23507443 -0.11916075 3.62007786 -1 2 C-0.67 1.34 -0.34 0.68 0 0 Z " fill="#602694" transform="translate(51,77)"/>
<path d="M0 0 C0.66 0.33 1.32 0.66 2 1 C0.43358249 5.30764815 -1.68336156 9.06171464 -4 13 C-4.66 12.67 -5.32 12.34 -6 12 C-5.36934243 8.78147169 -4.21979305 6.49198931 -2.4375 3.75 C-1.98246094 3.04359375 -1.52742188 2.3371875 -1.05859375 1.609375 C-0.53458984 0.81273438 -0.53458984 0.81273438 0 0 Z " fill="#8461C5" transform="translate(295,102)"/>
<path d="M0 0 C0.66 0 1.32 0 2 0 C3.54296875 2.046875 3.54296875 2.046875 5.1875 4.75 C5.73792969 5.63171875 6.28835937 6.5134375 6.85546875 7.421875 C8 10 8 10 7.67578125 12.328125 C7.45277344 12.87984375 7.22976562 13.4315625 7 14 C5.82508418 12.23462904 4.66031316 10.46250287 3.5 8.6875 C2.8503125 7.70136719 2.200625 6.71523437 1.53125 5.69921875 C0 3 0 3 0 0 Z " fill="#805BC3" transform="translate(205,173)"/>
<path d="M0 0 C0.99 0.33 1.98 0.66 3 1 C1.02 4.63 -0.96 8.26 -3 12 C-3.66 11.01 -4.32 10.02 -5 9 C-3.35 6.03 -1.7 3.06 0 0 Z " fill="#9550C8" transform="translate(313,70)"/>
<path d="M0 0 C0.66 0 1.32 0 2 0 C2.763125 0.825 3.52625 1.65 4.3125 2.5 C6.73731432 5.25367551 6.73731432 5.25367551 9.8125 5.3125 C10.8953125 5.1578125 10.8953125 5.1578125 12 5 C12.33 5.99 12.66 6.98 13 8 C9.10698835 8.37076301 7.19422173 8.10260771 3.6875 6.25 C1 4 1 4 0.125 1.75 C0.08375 1.1725 0.0425 0.595 0 0 Z " fill="#6C5BB3" transform="translate(238,253)"/>
<path d="M0 0 C1.63001953 0.01353516 1.63001953 0.01353516 3.29296875 0.02734375 C4.12441406 0.03894531 4.95585937 0.05054688 5.8125 0.0625 C4.8125 2.0625 4.8125 2.0625 2.625 3.25 C-0.74992734 4.22497901 -2.80873455 3.94391708 -6.1875 3.0625 C-7.1775 2.4025 -8.1675 1.7425 -9.1875 1.0625 C-5.90230525 -0.03256492 -3.45086585 -0.03710608 0 0 Z " fill="#A863EB" transform="translate(330.1875,282.9375)"/>
<path d="M0 0 C0.66 0 1.32 0 2 0 C3.98 3.96 5.96 7.92 8 12 C2.96964523 9.48482261 2.41749374 7.92132655 0 3 C0 2.01 0 1.02 0 0 Z " fill="#56299E" transform="translate(126,38)"/>
<path d="M0 0 C0.66 0.33 1.32 0.66 2 1 C0.90653119 2.34212062 -0.2001575 3.67347975 -1.3125 5 C-2.23482422 6.11375 -2.23482422 6.11375 -3.17578125 7.25 C-5 9 -5 9 -8 9 C-6.4169423 4.7257442 -3.49431596 2.73468206 0 0 Z " fill="#6D47AA" transform="translate(246,19)"/>
<path d="M0 0 C0.66 0 1.32 0 2 0 C1.46884894 4.51478398 -0.36620292 7.34666857 -3 11 C-3.66 10.01 -4.32 9.02 -5 8 C-4.21718695 6.66144944 -3.42348123 5.32926356 -2.625 4 C-2.18414062 3.2575 -1.74328125 2.515 -1.2890625 1.75 C-0.86367188 1.1725 -0.43828125 0.595 0 0 Z " fill="#7C51CB" transform="translate(288,114)"/>
<path d="M0 0 C3.36621173 0.92570822 5.96645078 2.11021953 8 5 C8.1875 7.6875 8.1875 7.6875 8 10 C7.484375 9.236875 6.96875 8.47375 6.4375 7.6875 C3.44152356 4.38424393 1.14287486 3.51374274 -3 2 C-2.01 1.34 -1.02 0.68 0 0 Z " fill="#8759BD" transform="translate(330,12)"/>
<path d="M0 0 C2.63886669 3.18483911 5.14494105 6.2898821 7 10 C6.67 10.99 6.34 11.98 6 13 C0 5.28571429 0 5.28571429 0 0 Z " fill="#5C35B4" transform="translate(90,144)"/>
<path d="M0 0 C0.66 0 1.32 0 2 0 C2.86627399 1.59766103 3.71766465 3.20339944 4.5625 4.8125 C5.27599609 6.15248047 5.27599609 6.15248047 6.00390625 7.51953125 C7 10 7 10 6 13 C3.87838666 10.87838666 3.07013751 9.2266841 1.875 6.5 C1.52179688 5.7059375 1.16859375 4.911875 0.8046875 4.09375 C0 2 0 2 0 0 Z " fill="#7153B2" transform="translate(333,133)"/>
<path d="M0 0 C2.631724 2.45627573 4.81527263 4.55352037 6 8 C5.67 9.32 5.34 10.64 5 12 C3.02 8.37 1.04 4.74 -1 1 C-0.67 0.67 -0.34 0.34 0 0 Z " fill="#6C43B8" transform="translate(181,131)"/>
<path d="M0 0 C0.66 0.99 1.32 1.98 2 3 C1.36971413 4.68076231 0.70211894 6.34795544 0 8 C0.33 8.99 0.66 9.98 1 11 C0.34 11.66 -0.32 12.32 -1 13 C-2.71928713 10.37050204 -3.01045637 9.12809053 -2.75 5.9375 C-2 3 -2 3 0 0 Z " fill="#5A378E" transform="translate(195,97)"/>
<path d="M0 0 C0.66 0 1.32 0 2 0 C2 0.66 2 1.32 2 2 C2.66 2 3.32 2 4 2 C7.22265625 7.17578125 7.22265625 7.17578125 8 9 C7.67 9.99 7.34 10.98 7 12 C3.95950199 8.35140239 2.03481238 4.2555467 0 0 Z " fill="#6231A5" transform="translate(81,131)"/>
<path d="M0 0 C0.680625 0.165 1.36125 0.33 2.0625 0.5 C1.4025 1.16 0.7425 1.82 0.0625 2.5 C-2.9765625 2.4765625 -2.9765625 2.4765625 -6.5625 2.125 C-7.75101562 2.01414062 -8.93953125 1.90328125 -10.1640625 1.7890625 C-11.07929687 1.69367187 -11.99453125 1.59828125 -12.9375 1.5 C-8.65215609 -1.35689594 -4.97351927 -0.84655647 0 0 Z " fill="#51249F" transform="translate(95.9375,12.5)"/>
<path d="M0 0 C3.00617269 3.00617269 2.59585316 5.82381598 3 10 C2.01 10.33 1.02 10.66 0 11 C-1.7578125 5.04296875 -1.7578125 5.04296875 -2 3 C-1.34 2.01 -0.68 1.02 0 0 Z " fill="#9C79EC" transform="translate(334,224)"/>
<path d="M0 0 C1.57554035 2.88628401 2.46276373 5.53342384 3.125 8.75 C3.29257812 9.54921875 3.46015625 10.3484375 3.6328125 11.171875 C3.81457031 12.07679688 3.81457031 12.07679688 4 13 C3.01 13.33 2.02 13.66 1 14 C1.33 12.02 1.66 10.04 2 8 C1.34 8 0.68 8 0 8 C-1.125 2.25 -1.125 2.25 0 0 Z " fill="#6E51BC" transform="translate(340,145)"/>
<path d="M0 0 C2 1 2 1 3.1875 3.75 C4.01105448 7.04421792 3.94405381 8.79021705 3 12 C2.67 12 2.34 12 2 12 C0.70756464 7.8803623 -0.26252625 4.33168317 0 0 Z " fill="#955ED7" transform="translate(221,199)"/>
<path d="M0 0 C0.66 0.66 1.32 1.32 2 2 C0.35 4.97 -1.3 7.94 -3 11 C-3.99 10.67 -4.98 10.34 -6 10 C-4.02 6.7 -2.04 3.4 0 0 Z " fill="#5646A4" transform="translate(291,156)"/>
<path d="M0 0 C0.66 0 1.32 0 2 0 C6.09030544 5.14209827 6.09030544 5.14209827 5.75 8.375 C5.5025 8.91125 5.255 9.4475 5 10 C0 3.40909091 0 3.40909091 0 0 Z " fill="#4B1CA3" transform="translate(23,30)"/>
<path d="M0 0 C2.96865509 2.54456151 4.3619751 5.48994665 6 9 C5.01 9 4.02 9 3 9 C0.50022457 5.66696609 0 4.26696398 0 0 Z " fill="#714ABF" transform="translate(118,192)"/>
<path d="M0 0 C0.66 0.99 1.32 1.98 2 3 C0.68 5.31 -0.64 7.62 -2 10 C-2.66 9.34 -3.32 8.68 -4 8 C-1.125 1.125 -1.125 1.125 0 0 Z " fill="#9751C9" transform="translate(337,30)"/>
<path d="M0 0 C0.33 0.66 0.66 1.32 1 2 C1.61875 2.268125 2.2375 2.53625 2.875 2.8125 C5.64126132 4.35835192 6.54655436 6.23845328 8 9 C4.86493389 8.66410006 3.974751 7.97334828 1.75 5.625 C0 3 0 3 0 0 Z " fill="#4822AA" transform="translate(116,23)"/>
<path d="M0 0 C2.25245881 2.68841859 3.88213958 4.64641875 5 8 C4.34 8.66 3.68 9.32 3 10 C-0.22265625 4.82421875 -0.22265625 4.82421875 -1 3 C-0.67 2.01 -0.34 1.02 0 0 Z " fill="#5826A1" transform="translate(60,92)"/>
<path d="M0 0 C0.66 0.66 1.32 1.32 2 2 C0.68 4.31 -0.64 6.62 -2 9 C-2.66 8.01 -3.32 7.02 -4 6 C-2.68 4.02 -1.36 2.04 0 0 Z " fill="#4F3C99" transform="translate(302,138)"/>
<path d="M0 0 C3.75376152 1.25125384 4.24073289 2.5652404 6 6 C6 6.66 6 7.32 6 8 C4.125 7.375 4.125 7.375 2 6 C0.75 2.875 0.75 2.875 0 0 Z " fill="#5E2F98" transform="translate(133,51)"/>
<path d="M0 0 C0.66 0 1.32 0 2 0 C1.47731534 2.76276177 0.89130413 5.3260876 0 8 C-0.66 8 -1.32 8 -2 8 C-1.125 1.125 -1.125 1.125 0 0 Z " fill="#916FD4" transform="translate(223,226)"/>
<path d="M0 0 C3.82946843 1.45255699 5.12050295 3.42895561 7 7 C6.01 7 5.02 7 4 7 C3.34 6.01 2.68 5.02 2 4 C1.34 4 0.68 4 0 4 C0 2.68 0 1.36 0 0 Z " fill="#5B43A3" transform="translate(326,123)"/>
<path d="M0 0 C0.66 0 1.32 0 2 0 C5.11450382 4.15267176 5.11450382 4.15267176 4.6875 7.3125 C4.460625 7.869375 4.23375 8.42625 4 9 C0 2.25 0 2.25 0 0 Z " fill="#7449B2" transform="translate(175,122)"/>
<path d="M0 0 C0.66 1.32 1.32 2.64 2 4 C0.625 6 0.625 6 -1 8 C-1.66 8 -2.32 8 -3 8 C-1.125 2.25 -1.125 2.25 0 0 Z " fill="#663CB7" transform="translate(211,69)"/>
<path d="M0 0 C0.66 0.66 1.32 1.32 2 2 C0.71937515 3.7074998 -0.61767557 5.37373596 -2 7 C-2.66 7 -3.32 7 -4 7 C-2.92598892 4.08482708 -2.22189824 2.22189824 0 0 Z " fill="#8D53C4" transform="translate(323,55)"/>
<path d="M0 0 C1.98 1.65 3.96 3.3 6 5 C5.34 5.66 4.68 6.32 4 7 C2.35 5.02 0.7 3.04 -1 1 C-0.67 0.67 -0.34 0.34 0 0 Z " fill="#58428E" transform="translate(321,117)"/>
<path d="M0 0 C0.66 0 1.32 0 2 0 C3.32 2.31 4.64 4.62 6 7 C4.125 6.875 4.125 6.875 2 6 C0.75 2.9375 0.75 2.9375 0 0 Z " fill="#653AAE" transform="translate(165,105)"/>
</svg>
